<svg xmlns="http://www.w3.org/2000/svg" width="46" height="46" viewBox="0 0 512 512">
    <path xmlns="http://www.w3.org/2000/svg" d="M432.86 205.9a175.565 175.565 0 01-10.56 71.88c-8.76 24-23.03 45.61-40.51 64.24L256 476 130.21 342.02c-17.48-18.63-31.75-40.24-40.51-64.24a175.565 175.565 0 01-10.56-71.88C85.17 115.8 157.11 36 256 36s170.83 79.8 176.86 169.9zm-43.94 7.84c0-75.38-59.51-136.49-132.92-136.49s-132.92 61.11-132.92 136.49S182.59 350.23 256 350.23s132.92-61.11 132.92-136.49z" fill="#232323" data-original="#e48e66"/>
    <path xmlns="http://www.w3.org/2000/svg" d="M222.78 215.02h-11.59v70.91a11.6 11.6 0 1023.19 0v-70.91zM256 77.25c73.41 0 132.92 61.11 132.92 136.49S329.41 350.23 256 350.23s-132.92-61.11-132.92-136.49S182.59 77.25 256 77.25zm50 158.76V128.63l-17.13.18a18.294 18.294 0 00-17.91 18.3v141.05a10.68 10.68 0 1021.36 0v-52.15z" fill="#232323" data-original="#f8ec7d"/>
    <path xmlns="http://www.w3.org/2000/svg" d="M306 128.63v107.38h-35.04v-88.9a18.294 18.294 0 0117.91-18.3z" fill="#fff" data-original="#6fe3ff"/>
    <path xmlns="http://www.w3.org/2000/svg" d="M292.32 236.45v51.71a10.68 10.68 0 11-21.36 0v-52.15h21.36zM234.38 215.02v70.91a11.6 11.6 0 11-23.19 0v-70.91h23.19z" fill="#232323" data-original="#e48e66"/>
    <path xmlns="http://www.w3.org/2000/svg" d="M383.5 82.928a180.041 180.041 0 00-255.006 0A191.691 191.691 0 0073.153 205.5a180.706 180.706 0 0010.91 74.337c8.629 23.641 22.683 45.942 41.773 66.288l125.79 133.98a6 6 0 008.748 0l125.792-133.98c19.088-20.345 33.142-42.646 41.771-66.288a180.7 180.7 0 0010.91-74.337A191.691 191.691 0 00383.5 82.928zm33.16 192.8c-8.069 22.11-21.275 43.035-39.247 62.19L256 467.234l-121.414-129.32c-17.974-19.156-31.18-40.081-39.249-62.19A168.765 168.765 0 0185.126 206.3 179.7 179.7 0 01137 91.4a168.042 168.042 0 01238 0 179.7 179.7 0 0151.872 114.9 168.76 168.76 0 01-10.209 69.423z" fill="#fff" data-original="#63316d"/>
    <path xmlns="http://www.w3.org/2000/svg" d="M256 71.25c-76.6 0-138.92 63.921-138.92 142.49S179.4 356.23 256 356.23s138.92-63.92 138.92-142.49S332.6 71.25 256 71.25zm0 272.98c-69.984 0-126.92-58.538-126.92-130.49S186.016 83.25 256 83.25s126.92 58.538 126.92 130.49S325.984 344.23 256 344.23z" fill="#fff" data-original="#63316d"/>
    <path xmlns="http://www.w3.org/2000/svg" d="M239.56 124.91a6 6 0 00-6 6v35.15a10.791 10.791 0 01-4.78 8.958V130.91a6 6 0 00-12 0v44.118a10.9 10.9 0 01-1.621-1.334A10.751 10.751 0 01212 166.06v-35.15a6 6 0 10-12 0v35.15a22.743 22.743 0 0016.78 21.971v20.989h-5.59a6 6 0 00-6 6v70.91a17.6 17.6 0 1035.19 0v-70.91a6 6 0 00-6-6h-5.6v-20.978a22.827 22.827 0 0016.78-21.982v-35.15a6 6 0 00-6-6zm-11.18 161.02a5.6 5.6 0 11-11.19 0v-64.91h11.19zM305.938 122.63l-17.194.181a24.434 24.434 0 00-23.784 24.3V288.16a16.68 16.68 0 1033.36 0v-46.15H306a6 6 0 006-6V128.63a6 6 0 00-1.779-4.265 6.123 6.123 0 00-4.283-1.735zM286.32 288.16a4.68 4.68 0 11-9.36 0v-46.15h9.36zM300 230.01h-23.04v-82.9a12.354 12.354 0 0111.973-12.3l11.067-.117z" fill="#fff" data-original="#63316d"/>
</svg>