<svg xmlns="http://www.w3.org/2000/svg" width="31" height="38" fill="#232323" viewBox="0 0 366.42 452">
    <g data-name="Layer 2">
        <g data-name="Layer 1">
            <path d="M310.71 52.93a180 180 0 00-254.61-.39l-.39.39A191.67 191.67 0 00.37 175.5a180.6 180.6 0 0010.91 74.34c8.63 23.66 22.69 46 41.78 66.29l125.79 134a6 6 0 008.48.27l.27-.27 125.79-134c19.09-20.33 33.14-42.63 41.77-66.29a180.6 180.6 0 0010.91-74.34 191.67 191.67 0 00-55.36-122.57zm-127.5 273.3c-76.6 0-138.92-63.92-138.92-142.49s62.32-142.5 138.92-142.5 138.92 63.92 138.92 142.49-62.32 142.5-138.92 142.5z"/>
            <path d="M183.21 53.24c-70 0-126.92 58.54-126.92 130.49s56.94 130.49 126.92 130.49 126.92-58.54 126.92-130.49S253.2 53.24 183.21 53.24zm-10.43 82.82A22.82 22.82 0 01156 158v21h5.6a6 6 0 016 6v70.91a17.6 17.6 0 01-35.19 0V185a6 6 0 016-6H144v-21a22.82 22.82 0 01-16.79-22v-35.09a6 6 0 0112 0v35.15a10.78 10.78 0 004.78 9v-44.1a6 6 0 1112 0V145a10.78 10.78 0 004.78-9v-35.09a6 6 0 0112 0zM239.21 206a6 6 0 01-6 6h-7.68v46.15a16.68 16.68 0 01-33.36.26V117.11a24.44 24.44 0 0123.77-24.3l17.2-.18a6.11 6.11 0 014.28 1.74 6 6 0 011.78 4.26z"/>
        </g>
    </g>
</svg>