<svg xmlns="http://www.w3.org/2000/svg" xmlns:xlink="http://www.w3.org/1999/xlink" width="46" height="46" viewBox="0 0 512 512">
    <defs xmlns="http://www.w3.org/2000/svg">
        <linearGradient id="a" x1="256" y1="478" x2="256" y2="28.218" gradientUnits="userSpaceOnUse">
            <stop stop-color="#fff" offset="1"/><stop stop-color="#b074ee" offset="1"/>
            <stop stop-color="#efbad3" offset="1"/>
            <stop stop-color="#d8a1dd" offset="1"/>
        </linearGradient>
        <linearGradient xmlns:xlink="http://www.w3.org/1999/xlink" id="b" x1="222.783" y1="478" x2="222.783" y2="28.218" xlink:href="#a"/>
        <linearGradient xmlns:xlink="http://www.w3.org/1999/xlink" id="c" x1="288.48" y1="478" x2="288.48" y2="28.218" xlink:href="#a"/>
    </defs>
    <path xmlns="http://www.w3.org/2000/svg" d="M383.5 82.929a180.036 180.036 0 00-255 0A191.666 191.666 0 0073.157 205.5a180.6 180.6 0 0010.908 74.34c8.633 23.657 22.688 45.96 41.775 66.289l125.786 133.977a6 6 0 008.748 0L386.16 346.125c19.087-20.329 33.142-42.632 41.775-66.289a180.6 180.6 0 0010.908-74.34A191.666 191.666 0 00383.5 82.929zm33.159 192.794c-8.073 22.125-21.279 43.048-39.249 62.189L256 467.234 134.588 337.912c-17.97-19.141-31.176-40.064-39.249-62.189A168.685 168.685 0 0185.13 206.3 179.671 179.671 0 01137 91.4a168.037 168.037 0 01238 0 179.671 179.671 0 0151.87 114.9 168.685 168.685 0 01-10.209 69.423z" fill="url(#a)"/>
    <path xmlns="http://www.w3.org/2000/svg" d="M256 71.247c-76.6 0-138.922 63.922-138.922 142.492S179.4 356.23 256 356.23s138.922-63.92 138.922-142.491S332.6 71.247 256 71.247zm0 272.983c-69.985 0-126.922-58.538-126.922-130.491S186.015 83.247 256 83.247s126.922 58.538 126.922 130.492S325.985 344.23 256 344.23z" fill="url(#a)"/>
    <path xmlns="http://www.w3.org/2000/svg" d="M239.565 124.914a6 6 0 00-6 6v35.149a10.78 10.78 0 01-4.783 8.955v-44.1a6 6 0 00-12 0v44.1a10.778 10.778 0 01-4.782-8.955v-35.149a6 6 0 00-12 0v35.149a22.821 22.821 0 0016.782 21.976v20.982h-5.6a6 6 0 00-6 6v70.913a17.6 17.6 0 0035.193 0v-70.913a6 6 0 00-6-6h-5.6v-20.982a22.821 22.821 0 0016.783-21.976v-35.149a6 6 0 00-5.993-6zm-11.186 161.02a5.6 5.6 0 01-11.193 0v-64.913h11.193z" fill="url(#b)"/>
    <path xmlns="http://www.w3.org/2000/svg" d="M305.938 122.632l-17.2.176a24.445 24.445 0 00-23.774 24.3v141.057a16.682 16.682 0 1033.363 0v-46.154H306a6 6 0 006-6V128.632a6 6 0 00-1.779-4.265 6.114 6.114 0 00-4.283-1.735zm-19.615 165.533a4.682 4.682 0 11-9.363 0v-46.154h9.363zM300 230.011h-23.04v-82.9a12.361 12.361 0 0111.967-12.3l11.073-.118z" fill="url(#c)"/>
</svg>