<svg xmlns="http://www.w3.org/2000/svg" width="28" height="38" fill="#232323" viewBox="0 0 380.39 512">
    <g data-name="Layer 2">
        <g data-name="Layer 1">
            <path d="M190.2 0C85.32 0 0 85.32 0 190.2c0 52.68 30.44 121.2 90.47 203.66a1103.4 1103.4 0 0088.95 107L190.2 512l10.8-11.13a1103.25 1103.25 0 0088.95-107c60-82.45 90.47-151 90.47-203.66C380.39 85.32 295.07 0 190.2 0zm-.32 84.73A53.27 53.27 0 11136.6 138a53.33 53.33 0 0153.27-53.27zm91.55 218.93H98.32v-33.49a78.85 78.85 0 0178.76-78.76h25.59a78.85 78.85 0 0178.76 78.76z"/><path d="M189.87 161.29A23.28 23.28 0 10166.59 138a23.31 23.31 0 0023.28 23.29zM202.67 221.4h-25.59a48.82 48.82 0 00-48.77 48.77v3.5h123.12v-3.5a48.82 48.82 0 00-48.77-48.77z"/>
        </g>
    </g>
</svg>